<mxfile host="app.diagrams.net" modified="2023-07-10T04:07:54.867Z" agent="Mozilla/5.0 (Windows NT 10.0; Win64; x64) AppleWebKit/537.36 (KHTML, like Gecko) Chrome/114.0.0.0 Safari/537.36 Edg/114.0.1823.58" etag="j7c31tSd1PlqsP4z3pDi" version="21.1.5" type="github">
  <diagram name="Page-1" id="2YBvvXClWsGukQMizWep">
    <mxGraphModel dx="1748" dy="869" grid="1" gridSize="10" guides="1" tooltips="1" connect="1" arrows="1" fold="1" page="1" pageScale="1" pageWidth="850" pageHeight="1100" math="0" shadow="0">
      <root>
        <mxCell id="0" />
        <mxCell id="1" parent="0" />
        <mxCell id="Qe3uZDnWK5ZRe-FWdGD1-7" value="根据商品来源字段，判断特殊的&lt;br&gt;商品才返回要出发的日历价格&lt;br&gt;和商品信息" style="text;html=1;align=center;verticalAlign=middle;resizable=0;points=[];autosize=1;strokeColor=none;fillColor=#FFB570;" vertex="1" parent="1">
          <mxGeometry x="780" y="170" width="190" height="60" as="geometry" />
        </mxCell>
        <mxCell id="aM9ryv3xv72pqoxQDRHE-1" value="fzs前端" style="shape=umlLifeline;perimeter=lifelinePerimeter;whiteSpace=wrap;html=1;container=0;dropTarget=0;collapsible=0;recursiveResize=0;outlineConnect=0;portConstraint=eastwest;newEdgeStyle={&quot;edgeStyle&quot;:&quot;elbowEdgeStyle&quot;,&quot;elbow&quot;:&quot;vertical&quot;,&quot;curved&quot;:0,&quot;rounded&quot;:0};fillColor=#FFFFCC;" parent="1" vertex="1">
          <mxGeometry x="170" y="20" width="110" height="540" as="geometry" />
        </mxCell>
        <mxCell id="aM9ryv3xv72pqoxQDRHE-2" value="" style="html=1;points=[];perimeter=orthogonalPerimeter;outlineConnect=0;targetShapes=umlLifeline;portConstraint=eastwest;newEdgeStyle={&quot;edgeStyle&quot;:&quot;elbowEdgeStyle&quot;,&quot;elbow&quot;:&quot;vertical&quot;,&quot;curved&quot;:0,&quot;rounded&quot;:0};" parent="aM9ryv3xv72pqoxQDRHE-1" vertex="1">
          <mxGeometry x="50" y="100" width="10" height="90" as="geometry" />
        </mxCell>
        <mxCell id="Qe3uZDnWK5ZRe-FWdGD1-24" value="" style="html=1;points=[];perimeter=orthogonalPerimeter;outlineConnect=0;targetShapes=umlLifeline;portConstraint=eastwest;newEdgeStyle={&quot;edgeStyle&quot;:&quot;elbowEdgeStyle&quot;,&quot;elbow&quot;:&quot;vertical&quot;,&quot;curved&quot;:0,&quot;rounded&quot;:0};" vertex="1" parent="aM9ryv3xv72pqoxQDRHE-1">
          <mxGeometry x="50" y="240" width="10" height="160" as="geometry" />
        </mxCell>
        <mxCell id="Qe3uZDnWK5ZRe-FWdGD1-33" value="" style="endArrow=classic;html=1;rounded=0;" edge="1" parent="aM9ryv3xv72pqoxQDRHE-1" source="Qe3uZDnWK5ZRe-FWdGD1-24" target="aM9ryv3xv72pqoxQDRHE-1">
          <mxGeometry width="50" height="50" relative="1" as="geometry">
            <mxPoint x="80" y="360" as="sourcePoint" />
            <mxPoint x="83" y="379" as="targetPoint" />
            <Array as="points">
              <mxPoint x="150" y="360" />
              <mxPoint x="150" y="380" />
            </Array>
          </mxGeometry>
        </mxCell>
        <mxCell id="aM9ryv3xv72pqoxQDRHE-5" value="fzs-接口" style="shape=umlLifeline;perimeter=lifelinePerimeter;whiteSpace=wrap;html=1;container=0;dropTarget=0;collapsible=0;recursiveResize=0;outlineConnect=0;portConstraint=eastwest;newEdgeStyle={&quot;edgeStyle&quot;:&quot;elbowEdgeStyle&quot;,&quot;elbow&quot;:&quot;vertical&quot;,&quot;curved&quot;:0,&quot;rounded&quot;:0};fillColor=#FFFFCC;" parent="1" vertex="1">
          <mxGeometry x="700" y="20" width="110" height="550" as="geometry" />
        </mxCell>
        <mxCell id="Qe3uZDnWK5ZRe-FWdGD1-17" value="" style="html=1;points=[];perimeter=orthogonalPerimeter;outlineConnect=0;targetShapes=umlLifeline;portConstraint=eastwest;newEdgeStyle={&quot;edgeStyle&quot;:&quot;elbowEdgeStyle&quot;,&quot;elbow&quot;:&quot;vertical&quot;,&quot;curved&quot;:0,&quot;rounded&quot;:0};" vertex="1" parent="aM9ryv3xv72pqoxQDRHE-5">
          <mxGeometry x="50" y="68.75" width="10" height="41.25" as="geometry" />
        </mxCell>
        <mxCell id="Qe3uZDnWK5ZRe-FWdGD1-22" value="" style="html=1;points=[];perimeter=orthogonalPerimeter;outlineConnect=0;targetShapes=umlLifeline;portConstraint=eastwest;newEdgeStyle={&quot;edgeStyle&quot;:&quot;elbowEdgeStyle&quot;,&quot;elbow&quot;:&quot;vertical&quot;,&quot;curved&quot;:0,&quot;rounded&quot;:0};" vertex="1" parent="aM9ryv3xv72pqoxQDRHE-5">
          <mxGeometry x="50" y="260" width="10" height="80" as="geometry" />
        </mxCell>
        <mxCell id="Qe3uZDnWK5ZRe-FWdGD1-20" value="" style="endArrow=classic;html=1;rounded=0;entryX=0.76;entryY=0.976;entryDx=0;entryDy=0;entryPerimeter=0;" edge="1" parent="aM9ryv3xv72pqoxQDRHE-5" source="aM9ryv3xv72pqoxQDRHE-5" target="Qe3uZDnWK5ZRe-FWdGD1-17">
          <mxGeometry width="50" height="50" relative="1" as="geometry">
            <mxPoint x="60" y="90" as="sourcePoint" />
            <mxPoint x="110" y="40" as="targetPoint" />
            <Array as="points">
              <mxPoint x="130" y="90" />
              <mxPoint x="130" y="110" />
            </Array>
          </mxGeometry>
        </mxCell>
        <mxCell id="Qe3uZDnWK5ZRe-FWdGD1-1" value="用户" style="shape=umlActor;verticalLabelPosition=bottom;verticalAlign=top;html=1;outlineConnect=0;fillColor=#97D077;" vertex="1" parent="1">
          <mxGeometry x="30" y="70" width="30" height="60" as="geometry" />
        </mxCell>
        <mxCell id="aM9ryv3xv72pqoxQDRHE-3" value="打开要出发活动页面" style="html=1;verticalAlign=bottom;startArrow=oval;endArrow=block;startSize=8;edgeStyle=elbowEdgeStyle;elbow=vertical;curved=0;rounded=0;" parent="1" target="aM9ryv3xv72pqoxQDRHE-2" edge="1" source="Qe3uZDnWK5ZRe-FWdGD1-1">
          <mxGeometry relative="1" as="geometry">
            <mxPoint x="125" y="100" as="sourcePoint" />
          </mxGeometry>
        </mxCell>
        <mxCell id="Qe3uZDnWK5ZRe-FWdGD1-2" value="文档地址：&lt;br&gt;https://yapi.phone580.cn/project/306/interface/api/5345" style="text;html=1;strokeColor=none;fillColor=none;align=center;verticalAlign=middle;whiteSpace=wrap;rounded=0;" vertex="1" parent="1">
          <mxGeometry x="450" y="85" width="60" height="30" as="geometry" />
        </mxCell>
        <mxCell id="Qe3uZDnWK5ZRe-FWdGD1-3" value="要出发-接口" style="shape=umlLifeline;perimeter=lifelinePerimeter;whiteSpace=wrap;html=1;container=0;dropTarget=0;collapsible=0;recursiveResize=0;outlineConnect=0;portConstraint=eastwest;newEdgeStyle={&quot;edgeStyle&quot;:&quot;elbowEdgeStyle&quot;,&quot;elbow&quot;:&quot;vertical&quot;,&quot;curved&quot;:0,&quot;rounded&quot;:0};fillColor=#FFFFCC;" vertex="1" parent="1">
          <mxGeometry x="1130" y="20" width="110" height="540" as="geometry" />
        </mxCell>
        <mxCell id="Qe3uZDnWK5ZRe-FWdGD1-4" value="" style="html=1;points=[];perimeter=orthogonalPerimeter;outlineConnect=0;targetShapes=umlLifeline;portConstraint=eastwest;newEdgeStyle={&quot;edgeStyle&quot;:&quot;elbowEdgeStyle&quot;,&quot;elbow&quot;:&quot;vertical&quot;,&quot;curved&quot;:0,&quot;rounded&quot;:0};" vertex="1" parent="Qe3uZDnWK5ZRe-FWdGD1-3">
          <mxGeometry x="50" y="140" width="10" height="90" as="geometry" />
        </mxCell>
        <mxCell id="Qe3uZDnWK5ZRe-FWdGD1-14" value="" style="html=1;points=[];perimeter=orthogonalPerimeter;outlineConnect=0;targetShapes=umlLifeline;portConstraint=eastwest;newEdgeStyle={&quot;edgeStyle&quot;:&quot;elbowEdgeStyle&quot;,&quot;elbow&quot;:&quot;vertical&quot;,&quot;curved&quot;:0,&quot;rounded&quot;:0};" vertex="1" parent="Qe3uZDnWK5ZRe-FWdGD1-3">
          <mxGeometry x="50" y="60" width="10" height="30" as="geometry" />
        </mxCell>
        <mxCell id="Qe3uZDnWK5ZRe-FWdGD1-28" value="" style="html=1;points=[];perimeter=orthogonalPerimeter;outlineConnect=0;targetShapes=umlLifeline;portConstraint=eastwest;newEdgeStyle={&quot;edgeStyle&quot;:&quot;elbowEdgeStyle&quot;,&quot;elbow&quot;:&quot;vertical&quot;,&quot;curved&quot;:0,&quot;rounded&quot;:0};" vertex="1" parent="Qe3uZDnWK5ZRe-FWdGD1-3">
          <mxGeometry x="50" y="280" width="10" height="80" as="geometry" />
        </mxCell>
        <mxCell id="Qe3uZDnWK5ZRe-FWdGD1-6" value="" style="endArrow=classic;html=1;rounded=0;" edge="1" parent="1" source="aM9ryv3xv72pqoxQDRHE-5" target="Qe3uZDnWK5ZRe-FWdGD1-3">
          <mxGeometry width="50" height="50" relative="1" as="geometry">
            <mxPoint x="760" y="300" as="sourcePoint" />
            <mxPoint x="800" y="100" as="targetPoint" />
            <Array as="points">
              <mxPoint x="770" y="170" />
              <mxPoint x="800" y="170" />
            </Array>
          </mxGeometry>
        </mxCell>
        <mxCell id="Qe3uZDnWK5ZRe-FWdGD1-10" value="" style="endArrow=classic;html=1;rounded=0;" edge="1" parent="1" source="aM9ryv3xv72pqoxQDRHE-6" target="aM9ryv3xv72pqoxQDRHE-5">
          <mxGeometry width="50" height="50" relative="1" as="geometry">
            <mxPoint x="220" y="150" as="sourcePoint" />
            <mxPoint x="270" y="100" as="targetPoint" />
          </mxGeometry>
        </mxCell>
        <mxCell id="Qe3uZDnWK5ZRe-FWdGD1-11" value="" style="endArrow=classic;html=1;rounded=0;" edge="1" parent="1" target="aM9ryv3xv72pqoxQDRHE-6">
          <mxGeometry width="50" height="50" relative="1" as="geometry">
            <mxPoint x="220" y="150" as="sourcePoint" />
            <mxPoint x="755" y="150" as="targetPoint" />
          </mxGeometry>
        </mxCell>
        <mxCell id="aM9ryv3xv72pqoxQDRHE-6" value="" style="html=1;points=[];perimeter=orthogonalPerimeter;outlineConnect=0;targetShapes=umlLifeline;portConstraint=eastwest;newEdgeStyle={&quot;edgeStyle&quot;:&quot;elbowEdgeStyle&quot;,&quot;elbow&quot;:&quot;vertical&quot;,&quot;curved&quot;:0,&quot;rounded&quot;:0};" parent="1" vertex="1">
          <mxGeometry x="750" y="140" width="10" height="90" as="geometry" />
        </mxCell>
        <mxCell id="Qe3uZDnWK5ZRe-FWdGD1-12" value="调用商品列表接口/project/category/products&lt;br&gt;，获取商品列表信息" style="text;html=1;align=center;verticalAlign=middle;resizable=0;points=[];autosize=1;strokeColor=none;fillColor=none;" vertex="1" parent="1">
          <mxGeometry x="350" y="115" width="260" height="40" as="geometry" />
        </mxCell>
        <mxCell id="Qe3uZDnWK5ZRe-FWdGD1-13" value="调用要出发【获取库存价格】&lt;br&gt;/StockPriceRequest&lt;br&gt;接口获取日历价格" style="text;html=1;align=center;verticalAlign=middle;resizable=0;points=[];autosize=1;strokeColor=none;fillColor=#FFB570;" vertex="1" parent="1">
          <mxGeometry x="980" y="170" width="180" height="60" as="geometry" />
        </mxCell>
        <mxCell id="Qe3uZDnWK5ZRe-FWdGD1-15" value="" style="endArrow=classic;html=1;rounded=0;" edge="1" parent="1" target="aM9ryv3xv72pqoxQDRHE-5">
          <mxGeometry width="50" height="50" relative="1" as="geometry">
            <mxPoint x="1180" y="100" as="sourcePoint" />
            <mxPoint x="1230" y="50" as="targetPoint" />
          </mxGeometry>
        </mxCell>
        <mxCell id="Qe3uZDnWK5ZRe-FWdGD1-16" value="要出发推送商品信息&lt;br&gt;/pushProducts" style="text;html=1;align=center;verticalAlign=middle;resizable=0;points=[];autosize=1;strokeColor=none;fillColor=#CCFFFF;" vertex="1" parent="1">
          <mxGeometry x="895" y="60" width="130" height="40" as="geometry" />
        </mxCell>
        <mxCell id="Qe3uZDnWK5ZRe-FWdGD1-21" value="保存推送数据到mongo" style="text;html=1;align=center;verticalAlign=middle;resizable=0;points=[];autosize=1;strokeColor=none;fillColor=#D5E8D4;" vertex="1" parent="1">
          <mxGeometry x="840" y="110" width="140" height="30" as="geometry" />
        </mxCell>
        <mxCell id="Qe3uZDnWK5ZRe-FWdGD1-23" value="调用商品详情接口/project/productdetail-all&lt;br&gt;获取商品详情，sku等信息" style="html=1;verticalAlign=bottom;startArrow=oval;endArrow=block;startSize=8;edgeStyle=elbowEdgeStyle;elbow=vertical;curved=0;rounded=0;" edge="1" target="Qe3uZDnWK5ZRe-FWdGD1-22" parent="1" source="aM9ryv3xv72pqoxQDRHE-1">
          <mxGeometry relative="1" as="geometry">
            <mxPoint x="690" y="310" as="sourcePoint" />
            <Array as="points">
              <mxPoint x="710" y="290" />
            </Array>
          </mxGeometry>
        </mxCell>
        <mxCell id="Qe3uZDnWK5ZRe-FWdGD1-25" value="文档地址：&lt;br&gt;https://yapi.phone580.cn/project/306/interface/api/5347" style="text;html=1;align=center;verticalAlign=middle;resizable=0;points=[];autosize=1;strokeColor=none;fillColor=none;" vertex="1" parent="1">
          <mxGeometry x="310" y="220" width="320" height="40" as="geometry" />
        </mxCell>
        <mxCell id="Qe3uZDnWK5ZRe-FWdGD1-29" value="" style="endArrow=classic;html=1;rounded=0;" edge="1" parent="1" target="Qe3uZDnWK5ZRe-FWdGD1-3">
          <mxGeometry width="50" height="50" relative="1" as="geometry">
            <mxPoint x="760" y="310" as="sourcePoint" />
            <mxPoint x="810" y="260" as="targetPoint" />
          </mxGeometry>
        </mxCell>
        <mxCell id="Qe3uZDnWK5ZRe-FWdGD1-30" value="根据商品来源字段，判断特殊的&lt;br&gt;商品才返回要出发的日历价格&lt;br&gt;和商品信息" style="text;html=1;align=center;verticalAlign=middle;resizable=0;points=[];autosize=1;strokeColor=none;fillColor=#FFB570;" vertex="1" parent="1">
          <mxGeometry x="780" y="320" width="190" height="60" as="geometry" />
        </mxCell>
        <mxCell id="Qe3uZDnWK5ZRe-FWdGD1-31" value="调用要出发【获取库存价格】&lt;br&gt;/StockPriceRequest&lt;br&gt;接口获取日历价格" style="text;html=1;align=center;verticalAlign=middle;resizable=0;points=[];autosize=1;strokeColor=none;fillColor=#FFB570;" vertex="1" parent="1">
          <mxGeometry x="1000" y="320" width="180" height="60" as="geometry" />
        </mxCell>
        <mxCell id="Qe3uZDnWK5ZRe-FWdGD1-34" value="商品简介和一些额外的字段，需要调用【新增的】 获取酒景&lt;br&gt;接口/fzs-product-api/project/getproductpoiinfo接口&lt;br&gt;获取" style="text;html=1;align=center;verticalAlign=middle;resizable=0;points=[];autosize=1;strokeColor=none;fillColor=#D5E8D4;" vertex="1" parent="1">
          <mxGeometry x="240" y="410" width="340" height="60" as="geometry" />
        </mxCell>
      </root>
    </mxGraphModel>
  </diagram>
</mxfile>
